<svg width="128" height="128" viewBox="0 0 128 128" fill="none" xmlns="http://www.w3.org/2000/svg">
  <!-- Background circle -->
  <circle cx="64" cy="64" r="60" fill="url(#gradient)" stroke="#667eea" stroke-width="4"/>
  
  <!-- Product icon -->
  <rect x="32" y="40" width="64" height="40" rx="4" fill="white" opacity="0.9"/>
  <rect x="36" y="44" width="56" height="32" rx="2" fill="#667eea" opacity="0.8"/>
  
  <!-- Analysis lines -->
  <path d="M20 20L40 40M108 20L88 40M20 108L40 88M108 108L88 88" stroke="white" stroke-width="3" stroke-linecap="round" opacity="0.7"/>
  
  <!-- Star for rating -->
  <path d="M64 20L68 32L80 32L70 40L74 52L64 44L54 52L58 40L48 32L60 32L64 20Z" fill="#ffd700"/>
  
  <!-- AI sparkles -->
  <circle cx="90" cy="30" r="3" fill="white" opacity="0.8"/>
  <circle cx="100" cy="50" r="2" fill="white" opacity="0.6"/>
  <circle cx="85" cy="60" r="2.5" fill="white" opacity="0.7"/>
  
  <defs>
    <linearGradient id="gradient" x1="0%" y1="0%" x2="100%" y2="100%">
      <stop offset="0%" style="stop-color:#667eea;stop-opacity:1" />
      <stop offset="100%" style="stop-color:#764ba2;stop-opacity:1" />
    </linearGradient>
  </defs>
</svg>
